<svg width="52" height="63" viewBox="0 0 52 63" fill="none" xmlns="http://www.w3.org/2000/svg">
<path d="M42.9218 33.4969C42.9218 25.6985 49.4625 21.925 49.714 21.6735C45.9406 16.3907 40.4062 15.636 38.3937 15.3844C33.614 14.8813 28.8343 18.1516 26.5703 18.1516C24.0547 18.1516 20.2812 15.3844 16.2562 15.3844C10.9734 15.3844 6.19373 18.4032 3.42655 23.1828C-2.10783 32.7422 1.91717 46.8297 7.19998 54.6282C9.96717 58.4016 12.9859 62.6782 17.0109 62.4266C21.0359 62.175 22.5453 59.911 27.325 59.911C32.1047 59.911 33.3625 62.4266 37.639 62.4266C41.9156 62.4266 44.6828 58.6532 47.1984 54.8797C50.2172 50.6032 51.475 46.3266 51.475 46.075C51.2234 45.8235 42.9218 42.8047 42.9218 33.4969Z" fill="white"/>
<path d="M35.1235 10.353C37.136 7.58584 38.6454 4.06396 38.3938 0.290527C35.3751 0.54209 31.3501 2.30303 29.3376 5.07021C27.3251 7.33428 25.5641 11.1077 26.0672 14.6296C29.3376 14.8811 32.8594 12.8687 35.1235 10.353Z" fill="white"/>
</svg>
