<svg width="150" height="23" viewBox="0 0 150 23" fill="none" xmlns="http://www.w3.org/2000/svg">
<path d="M25.4276 6.9292H3.68798L5.2772 0H27.0169L25.4276 6.9292ZM17.8576 14.959H9.25634L7.41235 23H0L3.43322 8.04102H19.4468L17.8576 14.959Z" fill="white"/>
<path d="M35.9396 6.9292H28.5272L30.1165 0H37.5288L35.9396 6.9292ZM46.5789 23H24.8393L28.2725 8.04102H35.6848L33.8408 16.0708H48.1681L46.5789 23Z" fill="white"/>
<path d="M75.1061 6.9292H53.3665L54.9557 0H76.6954L75.1061 6.9292ZM71.4182 23H49.6785L53.1117 8.04102H69.1253L67.5361 14.959H58.9349L58.6801 16.0708H73.0074L71.4182 23Z" fill="white"/>
<path d="M85.6181 6.9292H78.2057L79.795 0H87.2073L85.6181 6.9292ZM96.2574 23H88.8451L90.1553 17.2725L87.1952 15.1162L83.2403 17.2725L81.9301 23H74.5178L75.925 16.8569C76.0302 16.5425 76.1353 16.2243 76.2404 15.9023C76.5639 15.1237 76.9683 14.4162 77.4536 13.7798C78.141 12.8813 78.966 12.1738 79.9284 11.6572C79.152 11.3053 78.598 10.8187 78.2664 10.1973C78.0319 9.75553 77.9146 9.26139 77.9146 8.71484C77.9146 8.53516 77.9227 8.39665 77.9389 8.29932C77.955 8.20199 77.9753 8.11589 77.9995 8.04102H88.5661L92.8121 5.72754L94.1223 0H101.535L100.127 6.14307C100.022 6.45752 99.9211 6.76823 99.8241 7.0752C99.5248 7.81641 99.1366 8.50521 98.6595 9.1416C97.9963 10.0251 97.2118 10.7288 96.306 11.2529C96.9772 11.515 97.4585 11.8818 97.7496 12.3535C98.0084 12.7728 98.1378 13.3081 98.1378 13.9595C98.1378 14.4461 98.0691 15.0264 97.9316 15.7002C97.9235 15.7451 97.8345 16.1307 97.6647 16.8569L96.2574 23Z" fill="white"/>
<path d="M124.785 6.9292H103.045L104.634 0H126.374L124.785 6.9292ZM121.097 23H99.357L102.79 8.04102H118.804L117.215 14.959H108.613L108.359 16.0708H122.686L121.097 23Z" fill="white"/>
<path d="M149.199 8.81592C148.9 10.1411 148.601 11.1331 148.302 11.792C147.841 12.8027 147.214 13.5589 146.421 14.0605C145.475 14.6595 144.213 14.959 142.636 14.959C142.563 14.9665 142.503 14.974 142.454 14.9814C142.171 15.0563 141.997 15.236 141.933 15.5205C141.916 15.5954 141.908 15.6478 141.908 15.6777C141.908 15.8724 142.013 15.9959 142.224 16.0483C142.256 16.0558 142.309 16.0633 142.381 16.0708H147.525L145.936 23H139.361C137.242 23 135.741 22.6743 134.86 22.0229C134.132 21.4839 133.768 20.6678 133.768 19.5747C133.768 19.1105 133.833 18.5565 133.962 17.9126C133.978 17.8153 134.059 17.4634 134.205 16.8569L134.52 15.5205C134.52 15.4456 134.52 15.3895 134.52 15.3521C134.496 15.09 134.338 14.959 134.047 14.959C133.756 14.959 133.542 15.0863 133.404 15.3408C133.388 15.3783 133.364 15.4382 133.331 15.5205L131.609 23H124.196L127.63 8.04102H141.362C141.565 8.01856 141.71 7.97738 141.799 7.91748C141.945 7.82015 142.042 7.67415 142.09 7.47949C142.098 7.44206 142.102 7.39339 142.102 7.3335C142.102 7.16878 142.022 7.05273 141.86 6.98535C141.811 6.96289 141.73 6.94417 141.617 6.9292H127.884L129.473 0H144.638C146.498 0 147.885 0.445475 148.799 1.33643C149.6 2.11507 150 3.17448 150 4.51465C150 4.77669 149.984 5.03874 149.951 5.30078C149.919 5.55534 149.871 5.8361 149.806 6.14307L149.199 8.81592Z" fill="white"/>
</svg>
